Jump_normalized_pl13_filtered_grf
version=1
nRows=17
nColumns=37
inDegrees=yes
endheader
time		1_ground_force_vx		1_ground_force_vy		1_ground_force_vz		1_ground_force_px		1_ground_force_py		1_ground_force_pz		1_ground_torque_x		1_ground_torque_y		1_ground_torque_z		2_ground_force_vx		2_ground_force_vy		2_ground_force_vz		2_ground_force_px		2_ground_force_py		2_ground_force_pz		2_ground_torque_x		2_ground_torque_y		2_ground_torque_z		3_ground_force_vx		3_ground_force_vy		3_ground_force_vz		3_ground_force_px		3_ground_force_py		3_ground_force_pz		3_ground_torque_x		3_ground_torque_y		3_ground_torque_z		4_ground_force_vx		4_ground_force_vy		4_ground_force_vz		4_ground_force_px		4_ground_force_py		4_ground_force_pz		4_ground_torque_x		4_ground_torque_y		4_ground_torque_z		
0.973667		-0.000000		0.000000		0.000000		0.163167		0.000000		0.201347		0.000000		0.000000		-0.000000		0.000000		0.000000		0.000000		-0.130545		0.000000		0.244507		0.000000		-0.000000		0.000000		-5.807328		374.396542		289.433100		0.374901		1.308717		1.915241		0.247212		-15.937664		-12.320862		-20.992825		487.548174		339.944674		-0.265987		1.308598		1.927118		-0.977021		22.690856		15.821277		
0.976823		-0.000000		0.000000		0.000000		0.163167		0.000000		0.201347		0.000000		0.000000		-0.000000		-0.000000		0.000000		0.000000		-0.130545		0.000000		0.244507		0.000000		-0.000000		0.000000		-5.820004		376.697483		294.863293		0.374830		1.308696		1.915354		0.248118		-16.059326		-12.570580		-21.674255		493.350782		346.993281		-0.266023		1.308585		1.927184		-1.005824		22.894642		16.102712		
0.979980		-0.000000		0.000000		0.000000		0.163167		0.000000		0.201347		0.000000		0.000000		-0.000000		-0.000000		0.000000		0.000000		-0.130545		0.000000		0.244507		0.000000		-0.000000		0.000000		-5.765282		378.744667		300.416566		0.374750		1.308671		1.915479		0.246189		-16.173163		-12.828395		-22.403708		498.679558		354.000911		-0.266061		1.308577		1.927254		-1.036526		23.071805		16.378132		
0.983136		-0.000000		0.000000		0.000000		0.163167		0.000000		0.201347		0.000000		0.000000		-0.000000		-0.000000		-0.000000		0.000000		-0.130545		0.000000		0.244507		-0.000000		0.000000		-0.000000		-5.528305		380.514496		306.045168		0.374670		1.308639		1.915601		0.236554		-16.282044		-13.095538		-23.253776		503.456762		360.927370		-0.266098		1.308574		1.927328		-1.072704		23.224635		16.649702		
0.986293		0.000000		-0.000000		-0.000000		0.163167		0.000000		0.201347		-0.000000		-0.000000		0.000000		-0.000000		-0.000000		-0.000000		-0.130545		0.000000		0.244507		-0.000000		0.000000		-0.000000		-5.046584		381.926848		311.721269		0.374598		1.308600		1.915709		0.216514		-16.385858		-13.373822		-24.289354		507.552227		367.737822		-0.266131		1.308574		1.927409		-1.117708		23.355736		16.921975		
0.989449		0.000000		-0.000000		-0.000000		0.163167		0.000000		0.201347		-0.000000		-0.000000		0.000000		-0.000000		-0.000000		-0.000000		-0.130545		0.000000		0.244507		-0.000000		0.000000		-0.000000		-4.318935		382.860363		317.435173		0.374540		1.308559		1.915801		0.185919		-16.481161		-13.664776		-25.544450		510.807345		374.404258		-0.266160		1.308577		1.927498		-1.173524		23.466742		17.200317		
0.992606		0.000000		-0.000000		-0.000000		0.163167		0.000000		0.201347		-0.000000		-0.000000		0.000000		0.000000		-0.000000		-0.000000		-0.130545		0.000000		0.244507		-0.000000		0.000000		-0.000000		-3.393239		383.174284		323.184539		0.374496		1.308519		1.915877		0.146671		-16.562583		-13.969551		-27.007843		513.079979		380.891862		-0.266182		1.308582		1.927598		-1.240074		23.558234		17.488774		
0.995763		0.000000		-0.000000		-0.000000		0.163167		0.000000		0.201347		-0.000000		-0.000000		0.000000		0.000000		-0.000000		-0.000000		-0.130545		0.000000		0.244507		-0.000000		0.000000		-0.000000		-2.344704		382.742167		328.958140		0.374467		1.308486		1.915945		0.101845		-16.625050		-14.288859		-28.620298		514.298084		387.150201		-0.266197		1.308589		1.927709		-1.315002		23.630174		17.788181		
0.998919		0.000000		-0.000000		-0.000000		0.163167		0.000000		0.201347		-0.000000		-0.000000		0.000000		0.000000		0.000000		-0.000000		-0.130545		0.000000		0.244507		0.000000		-0.000000		0.000000		-1.267542		381.467234		334.724504		0.374444		1.308465		1.916015		0.055373		-16.664800		-14.622801		-30.302136		514.450963		393.131310		-0.266206		1.308597		1.927827		-1.394877		23.681348		18.096731		
1.002076		-0.000000		0.000000		0.000000		0.163167		0.000000		0.201347		0.000000		0.000000		-0.000000		0.000000		0.000000		0.000000		-0.130545		0.000000		0.244507		0.000000		-0.000000		0.000000		-0.198413		379.313512		340.399478		0.374424		1.308456		1.916093		0.008724		-16.680219		-14.968992		-31.968309		513.578460		398.785794		-0.266210		1.308604		1.927950		-1.475842		23.709745		18.410256		
1.005232		-0.000000		0.000000		0.000000		0.163167		0.000000		0.201347		0.000000		0.000000		-0.000000		0.000000		0.000000		0.000000		-0.130545		0.000000		0.244507		0.000000		-0.000000		0.000000		0.857086		376.309943		345.861154		0.374402		1.308456		1.916182		-0.037972		-16.671158		-15.322244		-33.551903		511.750710		404.082819		-0.266210		1.308609		1.928074		-1.554652		23.712309		18.723454		
1.008389		-0.000000		0.000000		0.000000		0.163167		0.000000		0.201347		0.000000		0.000000		-0.000000		-0.000000		0.000000		0.000000		-0.130545		0.000000		0.244507		0.000000		-0.000000		0.000000		1.929433		372.534886		350.968638		0.374379		1.308460		1.916281		-0.086175		-16.638223		-15.675042		-35.028893		509.033485		409.023186		-0.266206		1.308612		1.928198		-1.629857		23.684764		19.031402		
1.011545		-0.000000		0.000000		0.000000		0.163167		0.000000		0.201347		0.000000		0.000000		-0.000000		-0.000000		0.000000		0.000000		-0.130545		0.000000		0.244507		0.000000		-0.000000		0.000000		3.078528		368.067862		355.589625		0.374355		1.308461		1.916381		-0.138691		-16.581653		-16.019510		-36.413061		505.469306		413.621610		-0.266198		1.308614		1.928321		-1.701755		23.622958		19.330487		
1.014702		-0.000000		0.000000		0.000000		0.163167		0.000000		0.201347		0.000000		0.000000		-0.000000		-0.000000		0.000000		0.000000		-0.130545		0.000000		0.244507		0.000000		0.000000		0.000000		4.361848		362.952509		359.624657		0.374332		1.308456		1.916476		-0.198306		-16.500909		-16.349639		-37.737271		501.079949		417.906921		-0.266186		1.308617		1.928442		-1.771717		23.525029		19.620178		
1.017859		0.000000		-0.000000		-0.000000		0.163167		0.000000		0.201347		-0.000000		-0.000000		0.000000		-0.000000		-0.000000		-0.000000		-0.130545		0.000000		0.244507		-0.000000		0.000000		-0.000000		5.823100		357.183767		363.008343		0.374313		1.308441		1.916562		-0.267288		-16.394983		-16.662357		-39.040556		495.881329		421.927955		-0.266168		1.308626		1.928564		-1.841741		23.393206		19.904465		
1.021015		0.000000		-0.000000		-0.000000		0.163167		0.000000		0.201347		-0.000000		-0.000000		0.000000		-0.000000		-0.000000		-0.000000		-0.130545		0.000000		0.244507		-0.000000		0.000000		-0.000000		7.437396		350.689060		365.693499		0.374295		1.308422		1.916639		-0.344873		-16.261446		-16.957205		-40.323690		489.908447		425.723807		-0.266144		1.308641		1.928687		-1.912364		23.234065		20.190090		
1.024172		0.000000		-0.000000		-0.000000		0.163167		0.000000		0.201347		-0.000000		-0.000000		0.000000		0.000000		-0.000000		-0.000000		-0.130545		0.000000		0.244507		-0.000000		0.000000		-0.000000		9.112393		343.364977		367.619557		0.374275		1.308409		1.916720		-0.427193		-16.096888		-17.233969		-41.551546		483.221859		429.326706		-0.266112		1.308661		1.928810		-1.982562		23.056079		20.484584		
